<svg xmlns="http://www.w3.org/2000/svg" width="100" height="100" fill="none"><path fill="url(#a)" d="M87.84 0H12.16C5.444 0 0 5.444 0 12.16v75.68C0 94.556 5.444 100 12.16 100h75.68c6.716 0 12.16-5.444 12.16-12.16V12.16C100 5.444 94.556 0 87.84 0Z"/><g fill="#fff"><path d="M85.15 38.05h-3.5v4.84c0 1.23-1 2.23-2.23 2.23s-2.23-1-2.23-2.23V29.52H66.76c-1.23 0-2.23-1-2.23-2.23s1-2.23 2.23-2.23h6.67L66.99 14.2l-8.26 14.23s-.01 0-.02.01c-.39.65-1.09 1.09-1.91 1.09H22.28v6.3c0 1.22-.98 2.22-2.21 2.23l-6.56.07c-.13 0-.23.1-.23.23v11.83c0 .13.1.23.23.23h3.5v-4.84c0-1.23 1-2.23 2.23-2.23s2.23 1 2.23 2.23v13.38h54.91v-6.3c0-1.22.98-2.22 2.21-2.23l6.56-.07c.13 0 .23-.1.23-.23V38.3c0-.13-.1-.23-.23-.23v-.02ZM33.51 48.47c-3.45 0-6.25-3.07-6.25-6.86 0-3.79 2.8-6.86 6.25-6.86s6.25 3.07 6.25 6.86c0 3.79-2.8 6.86-6.25 6.86Zm30.06 0c-3.45 0-6.25-3.07-6.25-6.86 0-3.79 2.8-6.86 6.25-6.86s6.25 3.07 6.25 6.86c0 3.79-2.8 6.86-6.25 6.86ZM34.66 63.84v2.52h1.96l-1.96.04v21.38h2.55v-6.51c0-1.23 1-2.23 2.23-2.23h26.02c1.23 0 2.23 1 2.23 2.23v6.51h2.14V63.4H34.62c.03.14.04.29.04.44Z"/><path d="M86.08 29.48h-1.16v-7.13c0-1.57-1.27-2.84-2.84-2.84h-3.15l-9.81-15.5c-.51-.81-1.4-1.3-2.36-1.3s-1.85.49-2.36 1.3l-9.81 15.5h-10l-9.81-15.5c-.51-.81-1.4-1.3-2.36-1.3s-1.85.49-2.36 1.3l-9.81 15.5h-3.51c-1.57 0-2.84 1.27-2.84 2.84v7.63h-1.16c-4.81 0-8.72 3.91-8.72 8.72v10.87c0 4.81 3.91 8.72 8.72 8.72h1.16v5.23c0 1.57 1.27 2.84 2.84 2.84h10.48s-.01.1-.01.15v26.17c0 1.54 1.25 2.79 2.79 2.79h11.89c1.54 0 2.79-1.25 2.79-2.79v-5.96h16.15v5.96c0 1.54 1.25 2.79 2.79 2.79h10.44c1.54 0 2.79-1.25 2.79-2.79V66.36h5.23c1.57 0 2.84-1.27 2.84-2.84v-5.23h1.16c4.81 0 8.72-3.91 8.72-8.72V38.2c0-4.81-3.91-8.72-8.72-8.72Zm3.76 20.63c0 2.56-2.08 4.66-4.64 4.69l-4.35.05v6.32c0 1.23-1 2.23-2.23 2.23h-4.33v26.61c0 1.23-1 2.23-2.23 2.23h-6.6c-1.23 0-2.23-1-2.23-2.23V83.5H41.67v6.51c0 1.23-1 2.23-2.23 2.23h-7.01c-1.23 0-2.23-1-2.23-2.23V63.84c0-.15.02-.3.04-.44h-11c-1.23 0-2.23-1-2.23-2.23v-6.3h-3.5a4.69 4.69 0 0 1-4.69-4.69V38.35c0-2.56 2.08-4.66 4.64-4.69l4.35-.05v-6.32c0-1.23 1-2.23 2.23-2.23H39.3l-6.71-11.65-5.35 8.25a2.23 2.23 0 0 1-3.08.66 2.23 2.23 0 0 1-.66-3.08l7.34-11.32c.42-.65 1.14-1.08 1.93-1.02.78.02 1.49.44 1.87 1.12l9.81 17.03h11.07l9.73-16.29c.61-.87 2.38-.97 3.04-.11l9.47 16.4h1.65c1.23 0 2.23 1 2.23 2.23v6.3h3.5c2.59 0 4.69 2.1 4.69 4.69V50.1l.01.01Z"/></g><defs><linearGradient id="a" x1="2.69" x2="98" y1="1.66" y2="99.05" gradientUnits="userSpaceOnUse"><stop offset=".01" stop-color="#E9BC67"/><stop offset=".98" stop-color="#ED8D80"/></linearGradient></defs></svg>